<?xml version="1.0" standalone="no"?>
<!DOCTYPE svg PUBLIC "-//W3C//DTD SVG 20010904//EN"
 "http://www.w3.org/TR/2001/REC-SVG-20010904/DTD/svg10.dtd">
<svg version="1.0" xmlns="http://www.w3.org/2000/svg"
 width="459.000000pt" height="127.000000pt" viewBox="0 0 459.000000 127.000000"
 preserveAspectRatio="xMidYMid meet">
<metadata>
Created by potrace 1.16, written by Peter Selinger 2001-2019
</metadata>
<g transform="translate(0.000000,127.000000) scale(0.100000,-0.100000)"
fill="#000000" stroke="none">
<path d="M1591 1063 c13 -21 28 -46 33 -55 9 -16 28 -18 139 -18 148 0 180
-11 203 -67 12 -27 13 -42 4 -69 -19 -55 -52 -74 -131 -74 -38 0 -69 -3 -69
-6 0 -3 43 -78 96 -165 l95 -159 60 0 c32 0 59 4 59 9 0 5 -29 58 -65 117
l-64 108 27 16 c98 60 137 184 87 279 -21 42 -89 98 -132 110 -21 6 -111 11
-201 11 l-164 0 23 -37z m354 -2 c49 -23 89 -64 109 -113 22 -53 20 -86 -10
-146 -20 -41 -38 -59 -75 -81 l-48 -27 64 -108 c36 -59 65 -109 65 -112 0 -2
-17 -4 -39 -4 l-38 0 -86 143 -85 142 57 5 c68 6 108 29 127 75 18 44 18 59
-3 102 -29 62 -60 73 -209 73 l-131 0 -14 28 c-7 15 -15 30 -17 35 -2 4 63 7
145 7 123 0 155 -4 188 -19z"/>
<path d="M2190 774 l0 -325 53 3 52 3 3 268 2 267 110 0 110 0 0 55 0 55 -165
0 -165 0 0 -326z m310 271 l0 -35 -110 0 -110 0 -2 -267 -3 -268 -32 -3 -33
-3 0 305 0 306 145 0 145 0 0 -35z"/>
<path d="M2680 1045 l54 -55 168 0 168 0 0 55 0 55 -222 0 -222 0 54 -55z
m370 0 l0 -35 -153 0 -153 0 -34 35 -34 35 187 0 187 0 0 -35z"/>
<path d="M3199 1048 l30 -53 138 -5 c76 -3 146 -9 155 -14 28 -13 48 -53 48
-97 0 -33 -6 -47 -31 -70 -28 -26 -38 -29 -100 -29 -38 0 -69 -3 -69 -7 0 -5
42 -78 93 -163 l93 -155 62 -3 c34 -2 62 1 62 5 0 4 -30 57 -66 118 -46 76
-62 111 -52 114 7 2 34 25 59 51 88 90 88 202 0 290 -62 62 -96 70 -290 70
l-163 0 31 -52z m339 16 c94 -39 146 -135 121 -226 -12 -46 -67 -111 -109
-128 -17 -7 -30 -14 -30 -16 0 -2 24 -43 54 -92 86 -142 83 -132 37 -132 l-40
0 -83 137 c-46 76 -84 141 -86 145 -2 5 19 8 48 8 28 0 64 7 80 15 57 29 78
117 43 176 -29 48 -66 59 -205 59 l-124 0 -17 29 c-9 16 -17 32 -17 35 0 3 65
6 145 6 109 0 155 -4 183 -16z"/>
<path d="M3796 968 c59 -73 118 -145 132 -160 13 -14 21 -31 18 -36 -3 -5 -60
-76 -126 -157 -66 -81 -120 -152 -120 -156 0 -5 29 -9 64 -9 l65 0 258 317
c142 174 260 321 261 325 2 4 -27 8 -65 8 l-69 0 -93 -115 c-51 -63 -96 -115
-99 -114 -4 0 -47 51 -97 114 l-90 114 -73 0 -73 1 107 -132z m124 -8 c52 -66
98 -120 102 -120 4 0 51 54 105 120 l97 120 44 0 c34 0 42 -3 35 -12 -6 -7
-117 -145 -247 -305 l-237 -293 -40 0 c-21 0 -39 4 -39 8 0 5 15 26 33 48 18
21 72 87 119 145 l87 106 -120 145 c-65 81 -119 149 -119 152 0 3 19 6 43 6
42 -1 43 -2 137 -120z"/>
<path d="M1387 1028 c-58 -106 -297 -568 -297 -573 0 -3 27 -5 61 -3 l61 3
100 190 c55 105 103 194 108 199 5 5 29 -32 54 -83 l46 -91 60 0 c33 0 60 3
60 6 0 9 -210 414 -215 414 -2 0 -19 -28 -38 -62z m132 -157 c50 -96 91 -176
91 -178 0 -1 -17 -3 -37 -3 -38 0 -38 1 -94 106 l-56 106 -113 -216 -112 -216
-34 0 c-19 0 -34 5 -34 12 0 10 36 81 222 436 39 73 72 132 73 130 2 -2 44
-82 94 -177z"/>
<path d="M734 906 c-84 -37 -52 -156 41 -156 76 0 114 105 52 144 -36 23 -60
26 -93 12z"/>
<path d="M600 893 c-14 -2 -43 -10 -65 -17 -22 -8 -60 -17 -85 -20 -102 -14
-198 -86 -241 -180 -25 -56 -25 -166 0 -223 28 -61 94 -127 154 -154 79 -35
192 -34 269 4 95 46 160 139 162 232 1 47 -1 50 -24 50 -22 0 -26 -5 -32 -49
-16 -112 -108 -197 -222 -204 -81 -5 -133 10 -184 54 -77 65 -104 149 -77 239
37 127 177 206 286 161 19 -7 58 -16 88 -20 49 -6 53 -6 45 11 -10 23 -10 83
0 106 7 14 3 17 -20 16 -16 -1 -40 -4 -54 -6z"/>
<path d="M2620 775 l0 -55 225 0 225 0 0 55 0 55 -225 0 -225 0 0 -55z m430 0
l0 -35 -205 0 -205 0 0 35 0 35 205 0 205 0 0 -35z"/>
<path d="M2673 510 c-29 -27 -53 -51 -53 -55 0 -3 100 -4 223 -3 l222 3 3 53
3 52 -173 0 -173 -1 -52 -49z m375 -2 l-3 -33 -190 -3 -189 -2 34 35 34 35
159 0 158 0 -3 -32z"/>
<path d="M1570 208 c-43 -47 -10 -118 55 -118 65 0 99 76 55 120 -27 27 -83
27 -110 -2z"/>
<path d="M1915 210 c-10 -11 -18 -34 -18 -50 0 -68 89 -98 132 -44 12 15 21
34 21 44 0 10 -9 29 -21 44 -26 33 -86 37 -114 6z"/>
<path d="M2300 210 c-45 -45 -10 -120 55 -120 44 0 75 29 75 70 0 41 -31 70
-75 70 -22 0 -43 -8 -55 -20z"/>
<path d="M3021 204 c-12 -15 -21 -34 -21 -44 0 -33 39 -70 75 -70 68 0 104 72
60 120 -28 31 -88 27 -114 -6z"/>
<path d="M3351 204 c-12 -15 -21 -34 -21 -44 0 -10 9 -29 21 -44 41 -52 129
-23 129 44 0 67 -88 96 -129 44z"/>
</g>
</svg>
